<?xml version="1.0" standalone="no"?><!DOCTYPE svg PUBLIC "-//W3C//DTD SVG 1.1//EN" "http://www.w3.org/Graphics/SVG/1.1/DTD/svg11.dtd"><svg t="1492869613270" class="icon" style="" viewBox="0 0 1024 1024" version="1.1" xmlns="http://www.w3.org/2000/svg" p-id="11373" xmlns:xlink="http://www.w3.org/1999/xlink" width="200" height="200"><defs><style type="text/css"></style></defs><path d="M822.2 822.6H447.4l-125 187.4-125-187.4C94 822.6 10 738.6 10 635V197.4C10 94 94 10 197.4 10h624.8c103.4 0 187.4 84 187.4 187.4V635c0 103.6-84 187.6-187.4 187.6z m62.4-625.2c0-34.6-28-62.4-62.4-62.4H197.4c-34.6 0-62.4 28-62.4 62.4V635c0 34.6 28 62.4 62.4 62.4H239l83.2 125 83.4-125H822c34.4 0 62.4-28 62.4-62.4V197.4zM260 385h499.8v62.6H260V385z m0-125h499.8v62.4H260V260z m249.8 312.4H260V510h250v62.4z" fill="#ffffff" p-id="11374"></path></svg>