<?xml version="1.0" standalone="no"?><!DOCTYPE svg PUBLIC "-//W3C//DTD SVG 1.1//EN" "http://www.w3.org/Graphics/SVG/1.1/DTD/svg11.dtd"><svg t="1492583100976" class="icon" style="" viewBox="0 0 1024 1024" version="1.1" xmlns="http://www.w3.org/2000/svg" p-id="7659" xmlns:xlink="http://www.w3.org/1999/xlink" width="200" height="200"><defs><style type="text/css"></style></defs><path d="M574.762 722.837c-145.782 0-264.389-118.604-264.389-264.391 0-145.782 118.603-264.391 264.389-264.391 145.789 0 264.391 118.606 264.391 264.391 0 145.788-118.603 264.391-264.391 264.391zM574.762 245.055c-117.662 0-213.385 95.726-213.385 213.385s95.726 213.388 213.385 213.388 213.388-95.727 213.388-213.388c0-117.661-95.729-213.385-213.388-213.385z" fill="#f187b8" p-id="7660"></path><path d="M574.762 701.161c-133.829 0-242.708-108.883-242.708-242.716s108.88-242.711 242.708-242.711 242.713 108.88 242.713 242.711-108.881 242.716-242.713 242.716zM574.762 223.377c-129.617 0-235.067 105.449-235.067 235.067 0 129.616 105.445 235.069 235.067 235.069s235.069-105.454 235.069-235.069c0-129.616-105.449-235.067-235.069-235.067z" fill="#f187b8" p-id="7661"></path><path d="M410.527 782.556c-6.811 0-13.216-2.65-18.028-7.465l-134.373-134.37c-9.945-9.945-9.945-26.119 0-36.064 4.818-4.818 11.222-7.465 18.027-7.465 6.811 0 13.216 2.65 18.028 7.465l134.378 134.37c9.945 9.945 9.945 26.119 0 36.064-4.818 4.818-11.222 7.465-18.028 7.465z" fill="#f187b8" p-id="7662"></path><path d="M410.527 760.881c-0.975 0-1.956-0.372-2.706-1.123l-134.378-134.37c-1.494-1.494-1.494-3.914 0-5.407s3.914-1.494 5.407 0l134.378 134.37c1.494 1.494 1.494 3.914 0 5.407-0.747 0.75-1.725 1.123-2.706 1.123z" fill="#f187b8" p-id="7663"></path><path d="M261.223 797.49c-6.811 0-13.216-2.65-18.028-7.465-9.945-9.945-9.945-26.119 0-36.064l134.378-134.373c4.818-4.818 11.222-7.465 18.028-7.465s13.216 2.65 18.028 7.465c9.945 9.945 9.945 26.118 0 36.063l-134.378 134.378c-4.818 4.817-11.222 7.465-18.028 7.465z" fill="#f187b8" p-id="7664"></path><path d="M261.223 775.812c-0.975 0-1.959-0.372-2.706-1.123-1.494-1.494-1.494-3.914 0-5.407l134.378-134.378c1.494-1.494 3.914-1.494 5.407 0s1.494 3.914 0 5.407l-134.378 134.378c-0.747 0.75-1.726 1.123-2.706 1.123z" fill="#f187b8" p-id="7665"></path></svg>