<?xml version="1.0" standalone="no"?><!DOCTYPE svg PUBLIC "-//W3C//DTD SVG 1.1//EN" "http://www.w3.org/Graphics/SVG/1.1/DTD/svg11.dtd"><svg t="1492869550439" class="icon" style="" viewBox="0 0 1024 1024" version="1.1" xmlns="http://www.w3.org/2000/svg" p-id="9007" xmlns:xlink="http://www.w3.org/1999/xlink" width="200" height="200"><defs><style type="text/css"></style></defs><path d="M883.824959 186.953949 492.95883 186.953949c-15.957437 0-41.7161-10.666944-53.002145-21.954011l-58.121745-58.121745c-22.400173-22.400173-63.185065-39.293935-94.866624-39.293935L134.845663 67.584258c-40.206724 0-72.912613 32.705889-72.912613 72.912613l0 742.172263c0 40.205701 32.705889 77.005838 72.912613 77.005838l748.984413 0c40.201607 0 72.90852-36.800138 72.90852-77.005838L956.738595 259.866562C956.738595 219.664955 924.031683 186.953949 883.824959 186.953949zM142.008806 126.790708l144.959509 0c15.96153 0 41.720194 10.665921 53.000098 21.952988l58.123792 67.331501c22.404266 22.400173 63.183018 39.295981 94.866624 39.295981l390.871245 0c7.427156 0 13.706163 6.272867 13.706163 13.706163l0 51.376111L128.303666 320.453453 128.303666 140.495848C128.303666 133.064598 134.57858 126.790708 142.008806 126.790708zM883.830075 896.373251 142.008806 896.373251c-7.43125 0-13.706163-6.274914-13.706163-13.706163L128.302643 381.847731l769.232572 0 0 500.82038C897.536238 890.098337 891.257232 896.373251 883.830075 896.373251z" p-id="9008" fill="#ffffff"></path><path d="M631.370203 618.334817 541.59862 618.334817l0-89.77056c0-16.349363-13.249769-29.599132-29.598108-29.599132-16.349363 0-29.604248 13.249769-29.604248 29.599132l0 89.77056-89.772606 0c-16.34834 0-29.599132 13.255908-29.599132 29.604248 0 16.349363 13.250792 29.599132 29.599132 29.599132l89.772606 0L482.396263 767.308757c0 16.349363 13.254885 29.604248 29.604248 29.604248 16.34834 0 29.598108-13.254885 29.598108-29.604248l0-89.771583 89.772606 0c16.34834 0 29.603225-13.249769 29.603225-29.599132C660.973428 631.590725 647.718543 618.334817 631.370203 618.334817z" p-id="9009" fill="#ffffff"></path></svg>