<?xml version="1.0" standalone="no"?><!DOCTYPE svg PUBLIC "-//W3C//DTD SVG 1.1//EN" "http://www.w3.org/Graphics/SVG/1.1/DTD/svg11.dtd"><svg t="1492583056530" class="icon" style="" viewBox="0 0 1024 1024" version="1.1" xmlns="http://www.w3.org/2000/svg" p-id="4454" xmlns:xlink="http://www.w3.org/1999/xlink" width="200" height="200"><defs><style type="text/css"></style></defs><path d="M428.781672 378.582623c-120.219495 0-217.676996 97.457501-217.676996 217.676996 0 120.218472 97.457501 217.675972 217.676996 217.675972 120.219495 0 217.676996-97.457501 217.676997-217.675972-0.001024-120.220519-97.457501-217.676996-217.676997-217.676996z m0 391.817364c-96.175596 0-174.141392-77.964772-174.141392-174.140368s77.965796-174.142416 174.141392-174.142416 174.141392 77.965796 174.141393 174.142416c0 96.174572-77.96682 174.140368-174.141393 174.140368z" fill="#39B4FF" p-id="4455"></path><path d="M808.260195 215.123426c8.499272 8.50132 8.499272 22.28384 0 30.784136L592.770218 461.396516c-8.50132 8.50132-22.282816 8.50132-30.783113 0s-8.500296-22.28384 0-30.784137l215.488954-215.487929c8.500296-8.50132 22.282816-8.50132 30.784136-0.001024z" fill="#39B4FF" p-id="4456"></path><path d="M814.243781 230.515494c0 12.022461-9.746364 21.767802-21.767802 21.767802H603.822036c-12.021438 0-21.766778-9.745341-21.766778-21.767802 0-12.021438 9.745341-21.767802 21.766778-21.767802h188.653943c12.021438 0.001024 21.767802 9.746364 21.767802 21.767802z" fill="#39B4FF" p-id="4457"></path><path d="M792.867103 208.896156c12.022461 0 21.768826 9.746364 21.768826 21.767802v188.653942c0 12.021438-9.746364 21.766778-21.767802 21.766779-12.022461 0-21.768826-9.745341-21.768826-21.766779V230.662934c0-12.021438 9.745341-21.766778 21.767802-21.766778z" fill="#39B4FF" p-id="4458"></path></svg>