<?xml version="1.0" standalone="no"?><!DOCTYPE svg PUBLIC "-//W3C//DTD SVG 1.1//EN" "http://www.w3.org/Graphics/SVG/1.1/DTD/svg11.dtd"><svg t="1492869636092" class="icon" style="" viewBox="0 0 1024 1024" version="1.1" xmlns="http://www.w3.org/2000/svg" p-id="12089" xmlns:xlink="http://www.w3.org/1999/xlink" width="200" height="200"><defs><style type="text/css"></style></defs><path d="M805.5009 371.756c84.9265 0 153.9942-69.0934 153.9942-153.9922 0-84.8978-69.0678-153.9922-153.9942-153.9922s-153.9922 69.0944-153.9922 153.9922c0 7.5182 0.7107 14.847 1.7777 22.0928L329.4966 364.374c-28.1078-29.8588-67.8369-48.6154-111.9662-48.6154-84.9265 0-153.9922 69.0954-153.9922 153.9932s69.0657 153.9922 153.9922 153.9922c33.0834 0 63.7071-10.6086 88.8351-28.4355l219.3664 146.2262c-9.0501 19.5779-14.2172 41.26-14.2172 64.1997 0 84.8988 69.0668 153.9922 153.9922 153.9922 84.8988 0 153.9932-69.0934 153.9932-153.9922 0-84.8968-69.0944-153.9922-153.9932-153.9922-41.8345 0-79.7594 16.8141-107.5374 43.9931L346.0116 554.4305c16.0788-24.3343 25.5109-53.3996 25.5109-84.6787 0-20.2332-4.0192-39.51-11.1565-57.2283l310.8823-119.5684C697.6348 339.9025 747.8907 371.756 805.5009 371.756zM217.5304 567.7466c-54.0283 0-97.9958-43.9675-97.9958-97.9948 0-54.0293 43.9675-97.9958 97.9958-97.9958s97.9948 43.9665 97.9948 97.9958C315.5251 523.7791 271.5587 567.7466 217.5304 567.7466zM665.5078 707.7396c54.0293 0 97.9948 43.9654 97.9948 97.9948 0 54.0293-43.9665 97.9948-97.9948 97.9948s-97.9948-43.9665-97.9948-97.9948C567.5121 751.7041 611.4785 707.7396 665.5078 707.7396zM805.5009 119.7691c54.0293 0 97.9958 43.9665 97.9958 97.9948 0 54.0293-43.9675 97.9948-97.9958 97.9948-54.0303 0-97.9948-43.9654-97.9948-97.9948C707.5052 163.7356 751.4706 119.7691 805.5009 119.7691z" p-id="12090" fill="#ffffff"></path></svg>