<?xml version="1.0" standalone="no"?><!DOCTYPE svg PUBLIC "-//W3C//DTD SVG 1.1//EN" "http://www.w3.org/Graphics/SVG/1.1/DTD/svg11.dtd"><svg t="1495935779652" class="icon" style="" viewBox="0 0 1024 1024" version="1.1" xmlns="http://www.w3.org/2000/svg" p-id="33914" xmlns:xlink="http://www.w3.org/1999/xlink" width="64" height="64"><defs><style type="text/css"></style></defs><path d="M933.6 40.8 90.416 40.8c-49.76 1.776-74.912 24.688-74.4 74.4l0 595.184c-0.768 42.848 26.64 74.016 74.4 74.4l124 0 0 148.8c0 12.496-4.768 37.552 6.16 47.184 3.152 2.784 7.968 2.416 11.984 2.416 7.984 0 15.824-3.088 21.744-8.896l183.312-189.504 496 0c46.48 0 74.4-26.144 74.4-74.4L1008.016 115.2C1007.248 66.576 981.648 43.872 933.6 40.8zM958.4 685.584c0 0-7.664 48.288-49.6 49.6-108.992 3.392-496 0-496 0l-148.8 148.8-0.448-147.904c0 0-95.504 2.416-148.352-0.896-42.608-2.672-49.6-49.6-49.6-49.6L65.6 140c0 0 1.696-49.136 49.6-49.6 126.032-1.232 660.848-4.448 793.584 0 50.128 1.68 49.6 49.6 49.6 49.6L958.384 685.584zM779.84 363.2 244.176 363.2c-16.432 0-29.76 11.104-29.76 24.8 0 13.696 13.328 24.8 29.76 24.8L779.84 412.8c16.432 0 29.76-11.104 29.76-24.8C809.6 374.304 796.272 363.2 779.84 363.2zM778.608 239.2 245.408 239.2c-17.12 0-30.992 11.104-30.992 24.8 0 13.696 13.872 24.8 30.992 24.8l533.184 0c17.12 0 31.008-11.104 31.008-24.8C809.6 250.304 795.728 239.2 778.608 239.2zM605.888 487.2 244.528 487.2c-16.64 0-30.112 11.104-30.112 24.8 0 13.696 13.488 24.8 30.112 24.8l361.36 0c16.64 0 30.112-11.104 30.112-24.8C636 498.288 622.528 487.2 605.888 487.2z" p-id="33915" fill="#424846"></path></svg>