<?xml version="1.0" standalone="no"?><!DOCTYPE svg PUBLIC "-//W3C//DTD SVG 1.1//EN" "http://www.w3.org/Graphics/SVG/1.1/DTD/svg11.dtd"><svg t="1495936110425" class="icon" style="" viewBox="0 0 1024 1024" version="1.1" xmlns="http://www.w3.org/2000/svg" p-id="39210" xmlns:xlink="http://www.w3.org/1999/xlink" width="64" height="64"><defs><style type="text/css"></style></defs><path d="M865.12 158.88 453.152 158.88c0-64.992-52.704-117.696-117.696-117.696L158.88 41.184c-64.992 0-117.696 52.704-117.696 117.696l0 706.24c0 64.992 52.704 117.696 117.696 117.696l706.24 0c64.992 0 117.696-52.704 117.696-117.696L982.816 276.576C982.848 211.584 930.144 158.88 865.12 158.88zM923.968 335.424l-4.736 0 0 58.848 4.736 0 0 470.848c0 32.48-26.368 58.848-58.848 58.848L158.88 923.968c-32.48 0-58.848-26.368-58.848-58.848L100.032 394.304l4.832 0 0-58.848L100.032 335.456 100.032 158.88c0-32.48 26.368-58.848 58.848-58.848l176.576 0c32.48 0 58.848 26.368 58.848 58.848l0 58.848 470.848 0c32.48 0 58.848 26.368 58.848 58.848L924 335.424zM537.472 333.92l-38.176 0L499.296 524.8 308.448 524.8l0 38.176 190.88 0 0 190.88 38.176 0 0-190.88 190.88 0L728.384 524.8l-190.88 0L537.504 333.92z" p-id="39211" fill="#424846"></path></svg>