<?xml version="1.0" standalone="no"?><!DOCTYPE svg PUBLIC "-//W3C//DTD SVG 1.1//EN" "http://www.w3.org/Graphics/SVG/1.1/DTD/svg11.dtd"><svg t="1495936146229" class="icon" style="" viewBox="0 0 1024 1024" version="1.1" xmlns="http://www.w3.org/2000/svg" p-id="40530" xmlns:xlink="http://www.w3.org/1999/xlink" width="64" height="64"><defs><style type="text/css"></style></defs><path d="M787.008 629.888c-69.504 0-130.368 36.224-165.248 90.752L411.456 600.384C425.088 573.76 433.408 544.064 433.408 512c0-19.776-3.712-38.4-9.216-56.448l218.752-125.056c35.904 38.912 86.848 63.68 144 63.68 108.352 0 196.352-87.936 196.352-196.352s-88-196.352-196.352-196.352c-108.48 0-196.352 87.936-196.352 196.352 0 19.776 3.776 38.464 9.152 56.448L380.992 379.264C345.088 340.352 294.144 315.648 237.056 315.648 128.576 315.648 40.64 403.52 40.64 512c0 108.48 87.936 196.352 196.352 196.352 44.8 0 85.568-15.616 118.592-40.768l-0.768 1.344 237.888 136c-0.896 6.976-2.112 13.888-2.112 21.376 0 108.224 87.872 196.224 196.352 196.224 108.352 0 196.352-88 196.352-196.224C983.36 717.76 895.36 629.888 787.008 629.888zM787.008 79.936c65.024 0 117.888 52.8 117.888 117.824 0 65.088-52.864 117.824-117.888 117.824-65.152 0-117.888-52.736-117.888-117.824C669.12 132.736 721.856 79.936 787.008 79.936zM237.056 629.888c-65.088 0-117.76-52.736-117.76-117.888 0-65.088 52.736-117.824 117.76-117.824 65.088 0 117.824 52.736 117.824 117.824C354.88 577.152 302.144 629.888 237.056 629.888zM787.008 944.128c-65.152 0-117.888-52.864-117.888-117.76 0-65.28 52.736-118.016 117.888-118.016 65.024 0 117.888 52.736 117.888 118.016C904.896 891.264 852.032 944.128 787.008 944.128z" p-id="40531" fill="#424846"></path></svg>