<?xml version="1.0" standalone="no"?><!DOCTYPE svg PUBLIC "-//W3C//DTD SVG 1.1//EN" "http://www.w3.org/Graphics/SVG/1.1/DTD/svg11.dtd"><svg class="icon" width="200px" height="200.00px" viewBox="0 0 1024 1024" version="1.1" xmlns="http://www.w3.org/2000/svg"><path d="M959.112154 122.946147c0-32.921807-26.784016-59.705823-59.706847-59.705823-1.206478 0-2.410909 0.070608-3.609201 0.212848l-517.350868 61.259202c-31.94148 1.122567-57.580416 27.458375-57.580416 59.668984l0 490.210741c-26.931373-20.98801-60.770062-33.508161-97.480148-33.508161-87.605244 0-158.87852 71.272253-158.87852 158.87852s71.272253 158.87852 158.87852 158.87852 158.87852-71.272253 158.87852-158.87852c0-0.179079-0.00614-0.357134-0.007163-0.536212 0.001023-0.090051 0.007163-0.178055 0.007163-0.26913L382.263194 376.309598l515.450589-56.19486 0 258.520915c-26.992771-21.166065-60.97984-33.800827-97.862865-33.800827-87.605244 0-158.87852 71.272253-158.87852 158.87852 0 87.606267 71.272253 158.879544 158.87852 158.879544 86.894046 0 157.705811-70.121034 158.851914-156.747997 0.265036-1.622964 0.408299-3.285836 0.408299-4.983501L959.111131 122.946147zM223.38365 897.441583c-53.750181 0-97.480148-43.728944-97.480148-97.480148s43.728944-97.480148 97.480148-97.480148 97.480148 43.728944 97.480148 97.480148S277.134855 897.441583 223.38365 897.441583zM382.26217 314.546929 382.26217 186.026834c0.64059-0.035816 1.280156-0.091074 1.918699-0.166799l513.532913-60.806901 0 133.299959L382.26217 314.546929zM799.850917 801.194518c-53.750181 0-97.480148-43.728944-97.480148-97.481172 0-53.750181 43.728944-97.480148 97.480148-97.480148 53.751205 0 97.481172 43.728944 97.481172 97.480148C897.331066 757.464551 853.602122 801.194518 799.850917 801.194518z" fill="#bfbfbf" /></svg>