<?xml version="1.0" standalone="no"?><!DOCTYPE svg PUBLIC "-//W3C//DTD SVG 1.1//EN" "http://www.w3.org/Graphics/SVG/1.1/DTD/svg11.dtd"><svg t="1492008157096" class="icon" style="" viewBox="0 0 1024 1024" version="1.1" xmlns="http://www.w3.org/2000/svg" p-id="1005" xmlns:xlink="http://www.w3.org/1999/xlink" width="200" height="200"><defs><style type="text/css"></style></defs><path d="M 812.688 443.635 c -53.338 -53.338 -122.877 -84.571 -197.517 -89.152 c -4.864 -13.476 -9.237 -28.122 -12.955 -44.445 c -5.406 -23.756 -9.41 -51.082 -11.482 -83.564 c -0.506 -7.925 -0.895 -16.16 -1.163 -24.724 c -0.258 -8.306 -0.402 -16.927 -0.421 -25.875 c -0.031 -0.003 -0.059 -0.006 -0.09 -0.013 c 0.023 -0.226 0.061 -0.45 0.087 -0.678 c 5.899 -51.69 50.605 -91.766 104.187 -90.233 c 37.757 1.079 70.706 23.047 87.364 54.811 l 50.365 -9.678 c -19.821 -49.354 -64.973 -85.924 -119.381 -93.387 c -87.442 -11.994 -163.263 51.161 -172.043 134.026 c -0.073 0.693 -0.119 2.478 -0.146 3.174 l -0.001 6.676 c 0.018 5.903 0.16 15.092 0.539 25.67 c 0.183 5.153 0.419 10.23 0.693 15.251 c 2.775 50.809 10.176 94.917 22.415 133.85 c 0.03 0.09 0.057 0.177 0.086 0.268 c -27.769 2.932 -54.72 9.59 -80.274 19.713 l -0.018 0.002 l -0.034 0.017 c -38.362 15.204 -73.57 38.233 -103.627 68.291 l 9.538 -8.534 c -40.682 39.699 -65.986 95.088 -65.986 156.285 c 0 29.763 5.99 58.148 16.817 84.031 c 25.825 61.738 79.205 109.18 144.684 126.881 c 17.221 5.375 35.525 8.272 54.494 8.272 c 10.11 0 20.029 -0.837 29.698 -2.419 c 86.973 -14.235 153.556 -89.901 153.556 -180.838 c 0 -20.773 -3.481 -40.749 -9.879 -59.378 c -13.142 -54.395 -34.294 -91.456 -54.922 -127.561 c -6.288 -11.01 -12.514 -21.913 -18.499 -33.241 c 10.198 1.718 20.194 4.039 29.951 6.925 c 106.276 31.444 184.048 129.946 184.048 246.284 c 0 59.882 -20.607 115.04 -55.097 158.762 c -24.484 27.394 -53.099 51.013 -84.861 69.881 c -53.554 31.809 -116.031 50.11 -182.708 50.11 c -27.403 0 -54.094 -3.1 -79.754 -8.944 c -159.635 -36.365 -279.132 -179.455 -279.132 -349.94 c 0 -177.598 129.68 -325.454 299.316 -353.913 l -6.546 -49.329 c -83.813 13.561 -161.087 52.819 -222.371 113.935 c -76.53 76.319 -119.827 180.26 -120.076 288.341 c -0.253 109.839 42.541 213.123 120.404 290.601 c 77.532 77.148 183.19 120.052 292.559 118.903 c 72.921 -0.765 142.794 -20.532 203.967 -56.93 c 27.007 -14.218 52.015 -32.573 74.211 -54.769 c 8.033 -8.033 15.546 -16.446 22.559 -25.174 c 43.538 -54.177 67.203 -121.031 67.203 -191.533 c 0 -31.259 -4.661 -61.796 -13.632 -90.835 c -14.522 -47.012 -40.351 -90.09 -76.132 -125.871 Z M 403.266 422.166 c 0.771 -0.633 1.557 -1.249 2.338 -1.872 c -0.835 0.662 -1.665 1.331 -2.491 2.006 l 0.151 -0.134 Z M 664.427 581.851 c 3.326 14.137 6.031 29.586 7.954 46.765 c -0.627 65.317 -48.367 119.567 -110.8 130.331 c -6.657 0.801 -13.428 1.225 -20.295 1.225 c -14.779 0 -29.116 -1.916 -42.786 -5.5 c -72.415 -18.99 -125.996 -84.994 -125.996 -163.282 c 0 -22.391 4.393 -43.772 12.346 -63.341 c 10.096 -24.843 25.936 -46.761 45.873 -64.083 c 3.514 -2.963 7.102 -5.837 10.773 -8.609 c 39.492 -29.837 87.838 -48.543 140.336 -51.408 c 4.418 9.674 8.997 18.804 13.654 27.585 c 4.962 9.356 10.011 18.32 15.036 27.143 c 1.209 2.122 2.416 4.235 3.62 6.343 c 19.814 34.679 38.772 67.897 50.285 116.832 Z" p-id="1006" fill="#ffffff"></path></svg>