<?xml version="1.0" standalone="no"?><!DOCTYPE svg PUBLIC "-//W3C//DTD SVG 1.1//EN" "http://www.w3.org/Graphics/SVG/1.1/DTD/svg11.dtd"><svg t="1494830125929" class="icon" style="" viewBox="0 0 1024 1024" version="1.1" xmlns="http://www.w3.org/2000/svg" p-id="2371" xmlns:xlink="http://www.w3.org/1999/xlink" width="48" height="48"><defs><style type="text/css"></style></defs><path d="M769.184 832.32a31.936 31.936 0 0 0 25.504-7.488 31.872 31.872 0 0 0 10.976-30.592v-185.728c0-17.408-14.304-31.904-32-31.904-17.792 0-32 14.304-32 31.904v113.92l-171.04-171.072a31.968 31.968 0 1 0-45.248 45.248l171.68 171.68h-115.168c-17.408 0-31.904 14.336-31.904 32 0 17.824 14.304 32 31.904 32h187.296z m-540.16-640a31.936 31.936 0 0 0-25.472 7.488 31.872 31.872 0 0 0-10.976 30.592v185.696c0 17.408 14.336 31.904 32 31.904 17.792 0 32-14.272 32-31.904V302.208l171.04 171.04a31.968 31.968 0 1 0 45.248-45.248L301.184 256.32h115.168c17.408 0 31.904-14.336 31.904-32 0-17.792-14.272-32-31.904-32H229.056z" p-id="2372" fill="#ffffff"></path></svg>