<?xml version="1.0" standalone="no"?><!DOCTYPE svg PUBLIC "-//W3C//DTD SVG 1.1//EN" "http://www.w3.org/Graphics/SVG/1.1/DTD/svg11.dtd"><svg t="1494923983621" class="icon" style="" viewBox="0 0 1813 1024" version="1.1" xmlns="http://www.w3.org/2000/svg" p-id="6770" xmlns:xlink="http://www.w3.org/1999/xlink" width="113.3125" height="64"><defs><style type="text/css"></style></defs><path d="M691.225098 1024C409.323922 1024 179.225098 793.901176 179.225098 512S409.323922 0 691.225098 0 1203.225098 230.098824 1203.225098 512 973.126275 1024 691.225098 1024z m0-963.764706C441.85098 60.235294 239.460392 262.625882 239.460392 512S441.85098 963.764706 691.225098 963.764706 1142.989804 761.374118 1142.989804 512 940.599216 60.235294 691.225098 60.235294z" fill="#ffffff" p-id="6771"></path><path d="M588.825098 297.562353l277.082353 180.705882c16.865882 16.865882 16.865882 43.369412 0 60.235294l-277.082353 180.705883c-13.251765 13.251765-37.345882 3.614118-37.345882-15.661177V313.223529c0-19.275294 24.094118-28.912941 37.345882-15.661176z" fill="#ffffff" p-id="6772"></path></svg>