<?xml version="1.0" standalone="no"?><!DOCTYPE svg PUBLIC "-//W3C//DTD SVG 1.1//EN" "http://www.w3.org/Graphics/SVG/1.1/DTD/svg11.dtd"><svg t="1494949292566" class="icon" style="" viewBox="0 0 1025 1024" version="1.1" xmlns="http://www.w3.org/2000/svg" p-id="3212" xmlns:xlink="http://www.w3.org/1999/xlink" width="64.0625" height="64"><defs><style type="text/css"></style></defs><path d="M512.001535 0C229.255916 0 0.004093 229.231355 0.004093 512.001535c0 282.74562 229.252845 511.997442 511.997442 511.997442 282.790647 0 512.000512-229.251822 512.000512-511.997442C1024.002047 229.231355 794.793205 0 512.001535 0zM512.001535 1001.956949c-270.604545 0-489.954391-219.351893-489.954391-489.956437 0-270.606591 219.351893-489.979975 489.954391-489.979975 270.606591 0 490.002488 219.374407 490.002488 489.979975C1002.004023 782.605056 782.608126 1001.956949 512.001535 1001.956949z" p-id="3213" fill="#ffffff"></path><path d="M711.998729 494.461243 463.078038 301.811733c-5.494389-5.575234-13.340446-6.941412-19.991226-4.221336-7.752932 1.566755-13.611635 9.328897-13.611635 18.688496l0 380.014419c0 2.052849 0.286539 4.025876 0.807427 5.8761 0.166807 4.693103 2.271846 9.316617 6.272138 12.756111 7.973976 6.853404 20.430245 6.36424 27.865937-1.075545l246.993715-189.55591c0.715325-0.713278 1.335477-1.4767 1.906509-2.258543C719.790548 514.008333 719.310595 501.880561 711.998729 494.461243z" p-id="3214" fill="#ffffff"></path></svg>