<?xml version="1.0" standalone="no"?><!DOCTYPE svg PUBLIC "-//W3C//DTD SVG 1.1//EN" "http://www.w3.org/Graphics/SVG/1.1/DTD/svg11.dtd"><svg t="1494948937049" class="icon" style="" viewBox="0 0 1024 1024" version="1.1" xmlns="http://www.w3.org/2000/svg" p-id="2394" xmlns:xlink="http://www.w3.org/1999/xlink" width="64" height="64"><defs><style type="text/css"></style></defs><path d="M363.312397 722.378742c0.111604-0.230374 0.147439-0.019454 0.259043-0.383957-0.199658-0.704433-0.320476-0.614331-0.462796-0.844706l0.203753 1.228663M512.680884 3.612267c-280.875294 0-508.585342 227.711072-508.585343 508.591486 0 280.878366 227.711072 508.589438 508.585343 508.589438 280.880413 0 508.596605-227.711072 508.596605-508.589438 0-280.880413-227.716192-508.591486-508.596605-508.591486m0.004095 966.323516c-252.798311 0-457.729982-204.923481-457.729982-457.73203 0-252.802406 204.931672-457.73203 457.729982-457.73203 252.800358 0 457.73203 204.929624 457.73203 457.73203 0 252.807526-204.929624 457.73203-457.73203 457.73203m-88.335706-301.232182" fill="#ffffff" p-id="2395"></path><path d="M357.708673 252.220839h62.712976v522.604381h-62.712976V252.220839zM608.558529 252.220839h62.712977v522.604381h-62.712977V252.220839z" fill="#ffffff" p-id="2396"></path></svg>