<?xml version="1.0" standalone="no"?><!DOCTYPE svg PUBLIC "-//W3C//DTD SVG 1.1//EN" "http://www.w3.org/Graphics/SVG/1.1/DTD/svg11.dtd"><svg t="1494163707553" class="icon" style="" viewBox="0 0 1024 1024" version="1.1" xmlns="http://www.w3.org/2000/svg" p-id="3829" xmlns:xlink="http://www.w3.org/1999/xlink" width="32" height="32"><defs><style type="text/css"></style></defs><path d="M371.571862 880.205281 371.571862 880.205281 775.924433 549.115296C803.306549 526.694406 803.359491 490.229328 775.924433 467.765088L371.571862 136.675104C344.189747 114.254214 321.896298 124.671949 321.896298 160.040589L321.896298 856.839795C321.896298 892.486135 344.136806 902.669521 371.571862 880.205281L371.571862 880.205281ZM412.117862 929.723176 412.117862 929.723176C342.998042 986.319529 257.896298 946.619538 257.896298 856.839795L257.896298 160.040589C257.896298 70.558656 343.036778 30.592573 412.117862 87.15721L816.470433 418.247194C875.16997 466.311261 875.132094 550.600138 816.470433 598.63319L412.117862 929.723176Z" p-id="3830" fill="#d1d1d1"></path></svg>