<?xml version="1.0" standalone="no"?><!DOCTYPE svg PUBLIC "-//W3C//DTD SVG 1.1//EN" "http://www.w3.org/Graphics/SVG/1.1/DTD/svg11.dtd"><svg t="1498994503784" class="icon" style="" viewBox="0 0 1467 1024" version="1.1" xmlns="http://www.w3.org/2000/svg" p-id="3450" xmlns:xlink="http://www.w3.org/1999/xlink" width="91.6875" height="64"><defs><style type="text/css"></style></defs><path d="M1019.80126 1023.999659H466.875578a462.813712 462.813712 0 0 1-328.942824-136.635688C50.210117 799.436534 0 683.246706 0 557.636081c0-125.644758 55.978648-231.150856 143.701285-319.112427 87.722637-87.927437 197.870867-136.226088 323.174293-136.226088h524.970491V39.35572c0-29.832523 35.566921-47.991451 60.654913-32.290122l207.974331 103.355699c25.053858 15.701328 25.053858 44.407452 0 60.108779l-212.479929 114.892762c-25.053858 15.701328-56.149315-11.810129-56.149315-41.642653V170.530076h-529.407823c-198.894867 0-392.533202 187.665004-392.533203 387.071871 0 199.441 198.041534 398.472401 396.970535 398.472401h552.959815c131.549823 0 276.752974-94.037302 339.421754-208.656997 14.097062-25.122125 42.734919-37.512521 67.822911-23.381326 26.623991 10.99093 14.097062 33.006922 0 58.129048A464.554512 464.554512 0 0 1 1019.80126 1023.999659z" fill="#474747" p-id="3451"></path></svg>