<?xml version="1.0" standalone="no"?><!DOCTYPE svg PUBLIC "-//W3C//DTD SVG 1.1//EN" "http://www.w3.org/Graphics/SVG/1.1/DTD/svg11.dtd"><svg t="1498994419760" class="icon" style="" viewBox="0 0 1024 1024" version="1.1" xmlns="http://www.w3.org/2000/svg" p-id="2340" xmlns:xlink="http://www.w3.org/1999/xlink" width="64" height="64"><defs><style type="text/css"></style></defs><path d="M774.4 729.6h-102.4c-12.8 0-25.6-6.4-38.4-12.8-12.8-6.4-19.2-12.8-25.6-25.6l-76.8-128-32 44.8 64 108.8c12.8 19.2 25.6 32 44.8 44.8s38.4 19.2 57.6 19.2H768v70.4l140.8-96-140.8-96v70.4h6.4zM633.6 307.2c12.8-6.4 25.6-12.8 38.4-12.8h102.4v70.4l140.8-96-140.8-96v70.4h-102.4c-19.2 0-44.8 6.4-57.6 19.2-25.6 12.8-38.4 25.6-51.2 44.8l-217.6 384c-6.4 12.8-19.2 19.2-25.6 25.6-12.8 6.4-25.6 12.8-38.4 12.8H147.2v44.8h134.4c19.2 0 44.8-6.4 57.6-19.2 19.2-12.8 32-25.6 44.8-44.8l217.6-384c12.8-6.4 19.2-12.8 32-19.2zM320 307.2c6.4 6.4 19.2 12.8 25.6 25.6l76.8 134.4 25.6-51.2-64-108.8c-6.4-19.2-25.6-32-44.8-44.8-12.8-6.4-38.4-12.8-57.6-12.8H147.2v44.8h134.4c12.8 0 25.6 6.4 38.4 12.8z" fill="#8d8d8d" p-id="2341"></path></svg>