<?xml version="1.0" standalone="no"?><!DOCTYPE svg PUBLIC "-//W3C//DTD SVG 1.1//EN" "http://www.w3.org/Graphics/SVG/1.1/DTD/svg11.dtd"><svg t="1498994479141" class="icon" style="" viewBox="0 0 1024 1024" version="1.1" xmlns="http://www.w3.org/2000/svg" p-id="3124" xmlns:xlink="http://www.w3.org/1999/xlink" width="64" height="64"><defs><style type="text/css"></style></defs><path d="M925.1 600.7c-26.3-8.7-54.7 5.8-63.4 32.6-35.2 109-134.3 182.3-246.6 182.3H423.5C280.4 815.5 164 697 164 551.2s116.4-264.3 259.4-264.3h264.3c1.3 17.6 3.4 35.1 6.1 52.7 2.7 17.3 19.7 28.1 36.1 22.9 72.6-23.4 135.7-58.4 189.3-104.9 13.2-11.5 13-32.4-0.4-43.6-54.9-46-117.8-81-188.6-104.9-16.4-5.6-33.7 5.3-36.4 22.8-2.7 17.6-4.7 35.2-6.1 52.7H423.5c-198.4 0-359.9 164.5-359.9 366.6 0 202.2 161.4 366.6 359.9 366.6h191.7c155.7 0 293.1-101.5 342-252.6 8.6-26.8-5.8-55.7-32.1-64.5zM549.9 725.2V390h-30c-11.3 12.7-24.4 23.9-40.4 34.3-16 9.4-31.9 16-46.9 20.2V483c31.4-9.4 57.7-24.4 78.9-46v288.2h38.4z" p-id="3125"></path></svg>